<svg width="46" height="41" viewBox="0 0 46 41" fill="none" xmlns="http://www.w3.org/2000/svg">
<path d="M22.9312 39.9241C35.2306 39.9241 45.2011 31.1995 45.2011 20.4371C45.2011 9.67467 35.2306 0.950012 22.9312 0.950012C10.6319 0.950012 0.661377 9.67467 0.661377 20.4371C0.661377 31.1995 10.6319 39.9241 22.9312 39.9241Z" fill="#FF267E"/>
<path d="M23.0038 40.5088C7.25988 40.5088 0.20459 30.459 0.20459 20.5C0.20459 10.5409 7.25232 0.49115 23.0038 0.49115C38.7553 0.49115 45.7954 10.5409 45.7954 20.5C45.7954 30.459 38.7477 40.5088 23.0038 40.5088ZM23.0038 1.54226C9.99729 1.54226 1.25571 9.16467 1.25571 20.5076C1.25571 31.8504 9.99729 39.4728 23.0038 39.4728C36.0103 39.4728 44.7519 31.8504 44.7519 20.5076C44.7519 9.16467 36.0103 1.54226 23.0038 1.54226Z" fill="white"/>
<path d="M15.6992 25.5859L20.0095 11.7325H23.2384L17.2645 29.2005H13.9902L7.94067 11.7325H11.2679L15.6992 25.5859Z" fill="white"/>
<path d="M24.115 16.33C24.115 13.0557 27.5103 11.4148 30.7165 11.4148C34.1648 11.4148 36.8568 12.9801 37.56 16.6174H34.5958C34.0891 14.5227 32.2592 13.9178 30.5502 13.9178C29.2041 13.9178 27.2002 14.5227 27.2002 16.2317C27.2002 17.5777 28.3118 18.2583 29.8015 18.5457L31.9491 18.954C35.0117 19.559 37.923 20.663 37.923 24.1793C37.923 27.6956 34.4294 29.5029 30.9887 29.5029C26.8448 29.5029 24.0015 27.2419 23.6385 23.408H26.6482C27.1775 25.79 28.7202 26.9999 31.1324 26.9999C33.2044 26.9999 34.868 26.0622 34.868 24.3759C34.868 22.5913 32.9397 21.9939 31.2761 21.6763L29.1588 21.2679C26.4138 20.7159 24.1225 19.2943 24.1225 16.33H24.115Z" fill="white"/>
</svg>
