<svg width="65" height="57" viewBox="0 0 65 57" fill="none" xmlns="http://www.w3.org/2000/svg">
<path d="M32.4999 55.5045C49.5588 55.5045 63.3877 43.4036 63.3877 28.4763C63.3877 13.5491 49.5588 1.44817 32.4999 1.44817C15.441 1.44817 1.61206 13.5491 1.61206 28.4763C1.61206 43.4036 15.441 55.5045 32.4999 55.5045Z" fill="#000055"/>
<path d="M32.602 56.3158C10.7655 56.3158 0.97998 42.377 0.97998 28.564C0.97998 14.751 10.755 0.812103 32.602 0.812103C54.449 0.812103 64.2135 14.751 64.2135 28.564C64.2135 42.377 54.4385 56.3158 32.602 56.3158ZM32.602 2.26997C14.5623 2.26997 2.43786 12.8421 2.43786 28.5745C2.43786 44.3068 14.5623 54.8789 32.602 54.8789C50.6418 54.8789 62.7661 44.3068 62.7661 28.5745C62.7661 12.8421 50.6418 2.26997 32.602 2.26997Z" fill="#FF267E"/>
<path d="M42.8349 14.6647C42.8587 13.4397 42.8191 12.6731 42.8191 12.6731H32.4978L32.395 12.6652H22.0658C22.0658 12.6652 22.0263 13.4476 22.05 14.6726H15.2059V15.9766C15.2059 16.2769 15.2534 23.3027 18.9994 27.1515C20.5642 28.7558 22.5162 29.5619 24.816 29.5698C25.1638 29.5698 25.5194 29.5461 25.8829 29.5066C27.1869 31.5772 28.6964 33.0234 30.3956 33.7505V39.4802H25.4167V43.0682H23.7728V45.0835H41.1279V43.0682H39.4841V39.4802H34.5051V33.7505C36.2043 33.0313 37.7138 31.5772 39.0178 29.5066C39.3813 29.5461 39.737 29.5698 40.0847 29.5698C42.3845 29.5698 44.3365 28.7637 45.8934 27.1515C49.6395 23.3027 49.6869 16.2769 49.6869 15.9766V14.6726H42.8508L42.8349 14.6647ZM20.501 25.1915C18.3592 23.0024 17.727 19.2485 17.5373 17.2648H22.1685C22.3661 19.7305 22.8245 22.7969 23.8914 25.4998C24.0889 25.9976 24.2944 26.4639 24.4999 26.9223C22.9035 26.8512 21.56 26.2742 20.4931 25.1915H20.501ZM44.376 25.1915C43.317 26.2822 41.9656 26.8512 40.3692 26.9223C40.5747 26.4639 40.7881 25.9976 40.9777 25.4998C42.0446 22.7969 42.503 19.7305 42.7006 17.2648H47.3318C47.1421 19.2405 46.5099 22.9945 44.3681 25.1915H44.376Z" fill="#FF267E"/>
</svg>
