<svg width="489" height="89" viewBox="0 0 489 89" fill="none" xmlns="http://www.w3.org/2000/svg">
<g clip-path="url(#clip0_159_190)">
<path d="M489 0.00793457H0.000244141V89.0079H489V0.00793457Z" fill="#FF267E"/>
<path d="M158.218 42.8597H129.056V34.2034H164.297V22.2507H112.164V66.7651H129.056V54.8124H158.218V42.8597Z" fill="#000055"/>
<path d="M250.83 51.8887L235.367 22.2507H215.981L241.081 66.7651H260.326L285.426 22.2507H266.293L250.83 51.8887Z" fill="#000055"/>
<path d="M339.58 44.1496C343.978 41.9712 346.051 38.5029 346.051 34.576C346.051 27.2668 340.028 22.2507 328.15 22.2507H289.968V66.7364H329.019C341.765 66.7364 347.395 61.577 347.395 54.1531C347.395 49.9969 344.93 46.2134 339.552 44.1496M306.412 32.9422H325.265C327.45 32.9422 328.991 34.3467 328.991 36.2958C328.991 38.2449 327.45 39.6781 325.265 39.6781H306.412V32.9422ZM326.638 56.0736H306.412V49.3377H326.638C328.823 49.3377 330.363 50.7422 330.363 52.72C330.363 54.6978 328.823 56.1023 326.638 56.1023" fill="#000055"/>
<path d="M372.353 49.3379H401.43V39.6783H372.353V34.2036H404.512V22.2509H355.433V66.7653H405.268V54.8126H372.353V49.3379Z" fill="#000055"/>
<path d="M412.244 22.2509V34.2036H431.209V66.7653H448.297V34.2036H467.262V22.2509H412.244Z" fill="#000055"/>
<path d="M183.963 22.2507L158.863 66.7364H176.82L180.209 60.1725H207.046L210.436 66.7364H229.149L204.049 22.2507H183.991H183.963ZM186.204 48.6211L193.628 34.2894L201.051 48.6211H186.204Z" fill="#000055"/>
<path d="M21.8794 39.7101L36.8665 66.7684H56.0836L41.0965 39.7101H21.8794Z" fill="#000055"/>
<path d="M71.0979 39.7101L56.0828 66.7684H75.3279L90.315 39.7101H71.0979Z" fill="#000055"/>
<path d="M56.0839 12.7064L41.0968 39.7073H71.099L56.0839 12.7064Z" fill="#000055"/>
</g>
<defs>
<clipPath id="clip0_159_190">
<rect width="489" height="89" fill="white"/>
</clipPath>
</defs>
</svg>
